<svg width="37" height="37" viewBox="0 0 37 37" fill="none" xmlns="http://www.w3.org/2000/svg">
<path d="M3.15 33.5757H5.2L27.25 11.5257L25.2 9.47567L3.15 31.5257V33.5757ZM33.8 9.37568L27.35 2.92568L29.4 0.875676C30 0.275676 30.7333 -0.015991 31.6 0.000675676C32.4667 0.0173423 33.2167 0.325675 33.85 0.925675L35.85 2.92568C36.4833 3.52568 36.7833 4.25901 36.75 5.12568C36.7167 5.99234 36.4167 6.72568 35.85 7.32568L33.8 9.37568ZM1.7 36.7257C1.23333 36.7257 0.833333 36.559 0.5 36.2257C0.166667 35.8923 0 35.4757 0 34.9757V30.9757C0 30.7423 0.0416667 30.5257 0.125 30.3257C0.208333 30.1257 0.333333 29.9423 0.5 29.7757L25.25 5.02568L31.7 11.4757L6.95 36.2257C6.78333 36.3923 6.59167 36.5173 6.375 36.6007C6.15833 36.684 5.95 36.7257 5.75 36.7257H1.7ZM26.25 10.4757L25.2 9.47567L27.25 11.5257L26.25 10.4757Z" fill="black"/>
</svg>
