<svg width="48" height="40" viewBox="0 0 48 40" fill="none" xmlns="http://www.w3.org/2000/svg">
<path d="M44.05 16.9C41.1167 14.2 38.0167 12.05 34.75 10.45C31.4833 8.85 27.9 8.05 24 8.05C23.1 8.05 22.2333 8.11667 21.4 8.25C20.5667 8.38333 19.9 8.53333 19.4 8.7L14.6 3.9C16.0667 3.36667 17.55 2.98333 19.05 2.75C20.55 2.51667 22.2 2.4 24 2.4C28.6667 2.4 33.0417 3.36667 37.125 5.3C41.2083 7.23333 44.8333 9.8 48 13L44.05 16.9ZM36.8 24.15C35.7333 23.1167 34.7583 22.275 33.875 21.625C32.9917 20.975 31.8667 20.3667 30.5 19.8L25.3 14.6C28.3333 14.7667 30.9667 15.45 33.2 16.65C35.4333 17.85 37.55 19.4333 39.55 21.4L36.8 24.15ZM39.9 39.35L20.85 20.35C19.05 20.8167 17.475 21.5 16.125 22.4C14.775 23.3 13.55 24.2833 12.45 25.35L8.45 21.4C9.61667 20.2333 10.8 19.2 12 18.3C13.2 17.4 14.6833 16.5833 16.45 15.85L11.75 11.2C10.2167 12 8.81667 12.875 7.55 13.825C6.28333 14.775 5.08333 15.8 3.95 16.9L0 12.95C1.1 11.8167 2.31667 10.725 3.65 9.675C4.98333 8.625 6.28333 7.75 7.55 7.05L3.05 2.55L5.6 0L42.4 36.8L39.9 39.35ZM24 36.95L16.6 29.5C17.5667 28.5333 18.675 27.775 19.925 27.225C21.175 26.675 22.5333 26.4 24 26.4C25.4667 26.4 26.825 26.675 28.075 27.225C29.325 27.775 30.4333 28.5333 31.4 29.5L24 36.95Z" fill="#FFA901"/>
</svg>
