<svg width="30" height="42" viewBox="0 0 30 42" fill="none" xmlns="http://www.w3.org/2000/svg">
<rect x="1" y="8" width="28" height="30" rx="5" fill="#FFA901" stroke="#FFA901" stroke-width="2"/>
<path d="M22.1916 13C22.6381 13 23.0042 13.3629 22.9592 13.807C22.8807 14.5807 22.6897 15.3403 22.391 16.0615C21.989 17.0321 21.3997 17.914 20.6569 18.6569C19.914 19.3997 19.0321 19.989 18.0615 20.391C17.0909 20.7931 16.0506 21 15 21C13.9494 21 12.9091 20.7931 11.9385 20.391C10.9679 19.989 10.086 19.3997 9.34315 18.6569C8.60028 17.914 8.011 17.0321 7.60896 16.0615C7.31026 15.3403 7.11926 14.5807 7.04081 13.807C6.99577 13.3628 7.36194 13 7.80842 13V13C8.25489 13 8.61156 13.3634 8.66796 13.8063C8.73941 14.3675 8.88531 14.9179 9.10272 15.4427C9.42351 16.2172 9.89369 16.9208 10.4864 17.5136C11.0792 18.1063 11.7828 18.5765 12.5573 18.8973C13.3317 19.2181 14.1618 19.3832 15 19.3832C15.8382 19.3832 16.6683 19.2181 17.4427 18.8973C18.2172 18.5765 18.9208 18.1063 19.5136 17.5136C20.1063 16.9208 20.5765 16.2172 20.8973 15.4427C21.1147 14.9179 21.2606 14.3675 21.332 13.8063C21.3884 13.3634 21.7451 13 22.1916 13V13Z" fill="white"/>
<path d="M7.80842 8C7.36194 8 6.99577 7.63715 7.04081 7.19295C7.11926 6.41925 7.31026 5.65966 7.60896 4.93853C8.011 3.96793 8.60028 3.08601 9.34315 2.34314C10.086 1.60028 10.9679 1.011 11.9385 0.608963C12.9091 0.206925 13.9494 -3.88242e-07 15 0C16.0506 3.88243e-07 17.0909 0.206927 18.0615 0.608965C19.0321 1.011 19.914 1.60028 20.6569 2.34315C21.3997 3.08602 21.989 3.96793 22.391 4.93854C22.6897 5.65966 22.8807 6.41926 22.9592 7.19296C23.0042 7.63716 22.6381 8 22.1916 8V8C21.7451 8 21.3884 7.63664 21.332 7.19374C21.2606 6.63255 21.1147 6.08214 20.8973 5.55727C20.5765 4.78283 20.1063 4.07915 19.5136 3.48642C18.9209 2.89369 18.2172 2.42351 17.4427 2.10272C16.6683 1.78194 15.8383 1.61683 15 1.61683C14.1618 1.61683 13.3317 1.78194 12.5573 2.10272C11.7828 2.4235 11.0792 2.89369 10.4864 3.48642C9.89369 4.07915 9.42351 4.78282 9.10272 5.55727C8.88531 6.08214 8.73941 6.63254 8.66796 7.19374C8.61156 7.63664 8.25489 8 7.80842 8V8Z" fill="#FFA901"/>
</svg>
