<svg width="62" height="84" viewBox="0 0 62 84" fill="none" xmlns="http://www.w3.org/2000/svg">
<path d="M31 0C13.9064 0 0 13.912 0 31.0123C0 56.4907 27.9144 81.3681 29.1031 82.4149C29.645 82.8922 30.3224 83.1312 31 83.1312C31.6776 83.1312 32.355 82.8925 32.8972 82.4149C34.0854 81.3684 62 56.491 62 31.0123C62 13.912 48.0936 0 31 0ZM31 76.3262C24.8284 70.3458 5.74079 50.2872 5.74079 31.0123C5.74079 17.0777 17.0721 5.74079 31 5.74079C44.9279 5.74079 56.2592 17.0777 56.2592 31.0123C56.2592 50.2869 37.1716 70.3456 31 76.3262Z" fill="black"/>
<path d="M31 16.5654C23.0863 16.5654 16.6483 23.0463 16.6483 31.0123C16.6483 38.9786 23.0863 45.4592 31 45.4592C38.9137 45.4592 45.3517 38.9786 45.3517 31.0123C45.3517 23.0463 38.9137 16.5654 31 16.5654ZM31 39.7184C26.2518 39.7184 22.3888 35.8129 22.3888 31.0123C22.3888 26.212 26.2518 22.3062 31 22.3062C35.7483 22.3062 39.6112 26.2117 39.6112 31.0123C39.6112 35.8129 35.7483 39.7184 31 39.7184Z" fill="black"/>
</svg>
