<svg width="48" height="64" viewBox="0 0 48 64" fill="none" xmlns="http://www.w3.org/2000/svg">
<path d="M7.82441 1.69136L12.2169 0.36734C16.353 -0.879369 20.772 1.13543 22.5433 5.07546L25.2776 11.1579C26.7874 14.5162 25.9918 18.4631 23.2989 20.9742L18.5225 25.4283C18.4635 25.4833 18.415 25.5487 18.3795 25.6213C17.8799 26.6424 18.637 29.3707 21.0173 33.4934C23.7001 38.1403 25.7737 39.9791 26.7315 39.6936L33.0015 37.7767C36.5218 36.7004 40.3366 37.9838 42.4905 40.9689L46.3739 46.3509C48.8949 49.8449 48.4415 54.6652 45.3132 57.6278L41.9734 60.7908C39.6143 63.025 36.3109 63.9628 33.1298 63.3014C23.8225 61.3664 15.4835 53.8712 8.0431 40.9841C0.595355 28.0842 -1.72344 17.1058 1.26791 8.07298C2.28389 5.00507 4.73016 2.62405 7.82441 1.69136ZM8.96999 5.49189C7.11344 6.05151 5.64568 7.48012 5.03609 9.32087C2.45861 17.104 4.54643 26.9888 11.4807 38.9994C18.4084 50.9985 25.9174 57.7476 33.9378 59.4151C35.8465 59.8119 37.8285 59.2492 39.2439 57.9087L42.5838 54.7457C44.2682 53.1505 44.5124 50.5549 43.1549 48.6736L39.2715 43.2916C38.1117 41.6842 36.0576 40.9931 34.1621 41.5726L27.8787 43.4936C24.4011 44.5303 21.1325 41.6319 17.5796 35.4782C14.5719 30.2686 13.5278 26.5057 14.8139 23.8769C15.0624 23.3689 15.4019 22.9107 15.8155 22.5251L20.5917 18.0712C22.0417 16.719 22.4701 14.5938 21.6572 12.7855L18.9229 6.70301C17.9691 4.58146 15.5896 3.49657 13.3625 4.16787L8.96999 5.49189Z" fill="#212121"/>
</svg>
